<?xml version="1.0" encoding="utf-8"?>
<!-- Generator: Adobe Illustrator 18.1.0, SVG Export Plug-In . SVG Version: 6.00 Build 0)  -->
<svg version="1.1" id="Layer_1" xmlns="http://www.w3.org/2000/svg" xmlns:xlink="http://www.w3.org/1999/xlink" x="0px" y="0px"
	 viewBox="0 0 72 72" enable-background="new 0 0 72 72" xml:space="preserve">
<g>
	<path d="M2.9,71.5h3.4c1.2,0,1.8-0.6,1.8-1.8v-24c0-2.3-0.4-4.4-1.3-6.1C6.1,37.9,4.7,37,2.8,37c-0.9,0-1.9,0.2-2.8,0.7V72h2.9
		V71.5z"/>
	<path d="M24.4,72v-0.5h3.4c1.2,0,1.8-0.6,1.8-1.8v-24c0-2.3-0.4-4.4-1.3-6.1c-0.8-1.7-2.2-2.5-4.1-2.5c-2.4,0-4.7,1.6-6.9,4.7
		c-2.2,3.1-3.3,6.8-3.3,10.9v17.1c0,1.2,0.6,1.8,1.8,1.8h3.4V72H24.4z"/>
	<path d="M0,0v35.8C1.1,35.3,2.3,35,3.5,35c2.8,0,5.1,0.7,6.8,2.1c1.6,1.3,2.8,3.6,3.4,6.9l0.3,0.1c0.3-0.7,0.7-1.4,1.1-2.2
		c0.5-0.8,1.2-1.8,2.1-3c0.9-1.1,2-2.1,3.4-2.8C22,35.4,23.5,35,25,35c2.8,0,5.1,0.7,6.8,2.1c2.5,2,3.8,5.4,3.8,10.1v22.4
		c0,1.2,0.6,1.8,1.8,1.8h3.4V72h7.5c-1.3-0.9-2.4-2-3.5-3.3c-3-3.8-4.5-8.5-4.5-14c0-5.5,1.5-10.2,4.5-14c3-3.8,6.9-5.7,11.6-5.7
		c3.7,0,6.7,1.1,8.9,3.3c2.2,2.2,3.4,4.7,3.4,7.4c0,1.7-0.4,3-1.3,4c-0.9,1-1.9,1.4-3.2,1.4c-1.1,0-2-0.4-2.7-1.1
		c-0.7-0.7-1.1-1.6-1.1-2.5c0-1.9,0.9-3.2,2.8-3.8c0.9-0.3,1.3-0.8,1.3-1.5c0-1.1-0.7-2.3-2-3.5c-1.4-1.2-3.4-1.8-6-1.8
		c-3.4,0-5.8,1.5-7,4.4c-1.2,3-1.8,7.4-1.8,13.3c0,5.9,0.6,10.3,1.8,13.3c0.8,2,2.2,3.4,4.2,4h6.1c1.8-0.5,3.3-1.6,4.5-3.1
		c1.8-2.3,2.9-5.1,3.3-8.3h2c-0.2,3.6-1.4,6.7-3.7,9.6c-0.5,0.7-1.2,1.3-1.8,1.8H72V0H0z"/>
</g>
</svg>
