<?xml version="1.0" encoding="utf-8"?>
<!-- Generator: Adobe Illustrator 18.1.0, SVG Export Plug-In . SVG Version: 6.00 Build 0)  -->
<svg version="1.1" id="Layer_1" xmlns="http://www.w3.org/2000/svg" xmlns:xlink="http://www.w3.org/1999/xlink" x="0px" y="0px"
	 viewBox="0 0 72 72" enable-background="new 0 0 72 72" xml:space="preserve">
<g>
	<path d="M38.2,72v-1h3.4c1.2,0,1.8-0.6,1.8-1.8v-24c0-2.4-0.4-4.4-1.3-6.1c-0.8-1.7-2.2-2.5-4.1-2.5c-2.4,0-4.7,1.6-6.9,4.7
		c-2.2,3.1-3.3,6.8-3.3,10.9v17.1c0,1.2,0.6,1.8,1.8,1.8h3.4v1H38.2z"/>
	<path d="M12.8,72h4v-1h3.4c1.2,0,1.8-0.6,1.8-1.8V39.4c0-1.2-0.6-1.8-1.8-1.8h-2.6V59c0,5.4-1.3,9.4-3.8,12
		C13.5,71.3,13.1,71.7,12.8,72z"/>
	<path d="M0.5,62c1,0,1.8,0.3,2.4,0.9c0.6,0.6,0.9,1.5,0.9,2.5c0,1.3-0.5,2.3-1.5,3c-0.9,0.5-1.3,1.1-1.3,2c0,0.7,0.2,1.2,0.7,1.7
		h6.7c2.2-1.6,3.3-5.2,3.3-10.8V21.8c0-1.2-0.6-1.8-1.8-1.8H4v-2h13.6v17.6h10.3v7.2l0.3,0.1c3-5.5,6.5-8.3,10.6-8.3
		c2.8,0,5.1,0.7,6.8,2.1c1.6,1.3,2.8,3.6,3.4,6.9l0.3,0.1c0.3-0.7,0.7-1.4,1.1-2.2c0.5-0.8,1.2-1.8,2.1-3c0.9-1.1,2-2.1,3.4-2.8
		c1.3-0.7,2.8-1.1,4.3-1.1c2.8,0,5.1,0.7,6.8,2.1c2.5,2,3.8,5.4,3.8,10.1v22.4c0,1,0.4,1.5,1.2,1.7V0H16.5c0.2,0.2,0.5,0.3,0.7,0.6
		c0.8,0.8,1.2,1.8,1.2,3c0,1.2-0.4,2.2-1.2,3c-0.8,0.8-1.8,1.2-3,1.2c-1.2,0-2.2-0.4-3-1.2s-1.2-1.8-1.2-3c0-1.2,0.4-2.2,1.2-3
		c0.2-0.2,0.5-0.4,0.7-0.6H0.1v62C0.2,62,0.3,62,0.5,62z"/>
	<path d="M59.7,72v-1h3.4c1.2,0,1.8-0.6,1.8-1.8v-24c0-2.4-0.4-4.4-1.3-6.1c-0.8-1.7-2.2-2.5-4.1-2.5c-2.4,0-4.7,1.6-6.9,4.7
		c-2.2,3.1-3.3,6.8-3.3,10.9v17.1c0,1.2,0.6,1.8,1.8,1.8h3.4v1H59.7z"/>
</g>
</svg>
