<?xml version="1.0" encoding="utf-8"?>
<!-- Generator: Adobe Illustrator 18.1.0, SVG Export Plug-In . SVG Version: 6.00 Build 0)  -->
<svg version="1.1" id="Layer_1" xmlns="http://www.w3.org/2000/svg" xmlns:xlink="http://www.w3.org/1999/xlink" x="0px" y="0px"
	 viewBox="0 0 72 72" enable-background="new 0 0 72 72" xml:space="preserve">
<g>
	<path d="M4.6,36.7c-1.7,0-3.2,0.4-4.6,1.2v6c1.2,0.6,1.8,1.5,1.8,2.7c0,1.5-0.6,2.4-1.8,2.9v4.2c0.3-0.1,0.5-0.1,0.8-0.2
		c0.9-0.2,2.1-0.4,3.6-0.8l7.8-1.4v-7C12.2,39.2,9.7,36.7,4.6,36.7z"/>
	<path d="M6.3,70.2c1.1-0.6,2-1.5,2.8-2.7c0.8-1.2,1.4-2.3,1.8-3.1c0.4-0.9,0.9-2,1.3-3.4v-7.7l-7.3,1.6c-2.1,0.4-3.7,1.3-4.9,2.4
		v13.1c0.7,0.4,1.6,0.7,2.7,0.7C4,71.1,5.2,70.8,6.3,70.2z"/>
	<path d="M12.2,66.2L11.8,66c-0.8,1.9-2.1,3.7-4,5.5c-0.2,0.2-0.4,0.3-0.6,0.5H14C12.9,70.7,12.3,68.8,12.2,66.2z"/>
	<path d="M0,0v35.6c1.5-0.6,3.1-0.9,4.9-0.9c3.6,0,6.7,0.9,9.3,2.8s3.9,4.8,3.9,8.8v20.2c0,2.7,0.8,4.1,2.5,4.1
		c2.5,0,3.8-2.7,3.8-8.2h1.5c0,4.5-0.7,7.7-2.2,9.6h5c-0.9-0.9-1.4-2-1.4-3.3c0-2.2,0.9-4,2.6-5.3c1.7-1.3,3.8-2.1,6.4-2.6v-0.2
		c-5.5-2.3-8.3-6.5-8.3-12.4c0-4.2,1.4-7.4,4.3-9.8c2.9-2.4,6.3-3.6,10.3-3.6c2.3,0,4.6,0.5,6.8,1.6c2.2,1,3.6,1.9,4.1,2.7
		c0.5-1.4,1.3-2.5,2.4-3.2c1.1-0.7,2.2-1.1,3.3-1.1c1.9,0,3.4,0.5,4.6,1.6c1.2,1.1,1.8,2.5,1.8,4.3c0,1.3-0.3,2.4-0.9,3.2
		C64,44.6,63.2,45,62.1,45c-0.9,0-1.6-0.2-2.3-0.7c-0.7-0.5-1-1.2-1-2.3c0-1.2,0.5-2.1,1.4-2.6c0.6-0.4,0.9-0.9,0.9-1.5
		c0-0.9-0.7-1.3-2.2-1.3c-1,0-1.9,0.4-2.7,1.2c-0.8,0.8-1.2,1.7-1.4,2.7c1.5,2.1,2.3,4.6,2.3,7.5c0,4.1-1.4,7.4-4.2,9.8
		c-2.8,2.4-6.3,3.6-10.4,3.6c-3.1,0-5.9,0.4-8.3,1.3c-2.4,0.8-3.6,2.3-3.6,4.2c0,1.8,1.7,2.7,5.2,2.7c1.1,0,2.1,0,2.8-0.1
		c0.7-0.1,1.5-0.1,2.5-0.1h8.4c3.2,0,5.9,0.8,8.1,2.4H72V0H0z"/>
	<path d="M48.5,56.6c1.4-2,2.1-4.8,2.1-8.4c0-3.6-0.7-6.4-2.1-8.4c-1.4-2-3.4-3-5.9-3c-2.5,0-4.5,1-5.9,3c-1.4,2-2.1,4.8-2.1,8.4
		c0,3.6,0.7,6.4,2.1,8.4c1.4,2,3.4,3,5.9,3C45.1,59.6,47.1,58.6,48.5,56.6z"/>
</g>
</svg>
