<?xml version="1.0" encoding="utf-8"?>
<!-- Generator: Adobe Illustrator 18.1.0, SVG Export Plug-In . SVG Version: 6.00 Build 0)  -->
<svg version="1.1" id="Layer_1" xmlns="http://www.w3.org/2000/svg" xmlns:xlink="http://www.w3.org/1999/xlink" x="0px" y="0px"
	 viewBox="0 0 72 72" enable-background="new 0 0 72 72" xml:space="preserve">
<g>
	<polygon points="0,65.6 0,72 2.7,72 	"/>
	<path d="M0,0v36h1.1v2H0v12.6l6,14.5l5.9-19.7c0.1-0.6,0.2-1.1,0.2-1.7c0-0.3-0.3-1.2-0.9-2.7c-0.9-2-2-3-3.4-3H6v-2h17.5v2h-3.2
		c-0.7,0-1.3,0.2-1.7,0.5c-0.4,0.3-0.6,0.6-0.6,0.9c0,0.2,0,0.6,0,1.1c0,0.8,0.1,1.5,0.4,2.2l7.9,22.2l6.6-19.4
		c0.6-1.7,0.9-3.1,0.9-4.2c0-2.1-1-3.2-2.9-3.2h-2v-2h14.8v2h-1.9c-2.7,0-4.6,1.6-5.7,4.8L25.8,72h21.8c-1.3-0.9-2.4-2-3.5-3.3
		c-3-3.8-4.5-8.5-4.5-14c0-5.5,1.5-10.2,4.5-14c3-3.8,6.9-5.7,11.6-5.7c3.7,0,6.7,1.1,8.9,3.3c2.2,2.2,3.4,4.7,3.4,7.4
		c0,1.7-0.4,3-1.3,4c-0.9,1-1.9,1.4-3.2,1.4c-1.1,0-2-0.4-2.7-1.1c-0.7-0.7-1.1-1.6-1.1-2.5c0-1.9,0.9-3.2,2.8-3.8
		c0.9-0.3,1.3-0.8,1.3-1.5c0-1.1-0.7-2.3-2-3.5c-1.4-1.2-3.4-1.8-6-1.8c-3.4,0-5.8,1.5-7,4.4c-1.2,3-1.8,7.4-1.8,13.3
		c0,5.9,0.6,10.3,1.8,13.3c0.8,2,2.2,3.4,4.2,4h6.1c1.8-0.5,3.3-1.6,4.5-3.1c1.8-2.3,2.9-5.1,3.3-8.3h2c-0.2,3.6-1.4,6.7-3.7,9.6
		c-0.5,0.7-1.2,1.3-1.8,1.8H72V0H0z"/>
	<polygon points="5.9,72 22.6,72 13.7,47.5 	"/>
</g>
</svg>
