<?xml version="1.0" encoding="utf-8"?>
<!-- Generator: Adobe Illustrator 18.1.0, SVG Export Plug-In . SVG Version: 6.00 Build 0)  -->
<svg version="1.1" id="Layer_1" xmlns="http://www.w3.org/2000/svg" xmlns:xlink="http://www.w3.org/1999/xlink" x="0px" y="0px"
	 viewBox="0 0 72 72" enable-background="new 0 0 72 72" xml:space="preserve">
<g>
	<path d="M0,0v36h8v10.3l0.3,0.1c0.9-2.6,2.1-4.9,3.4-6.7c1.3-1.8,2.6-3,3.6-3.6c1.4-0.8,2.7-1.1,4.1-1.1c2.1,0,3.6,0.7,4.7,2
		c1,1.3,1.6,2.9,1.6,4.7c0,1.3-0.4,2.6-1.1,3.8c-0.8,1.2-1.9,1.8-3.4,1.8c-1,0-1.9-0.3-2.6-0.8c-0.7-0.5-1.1-1.3-1.1-2.3
		c0-1.6,0.7-2.8,2.2-3.6c1.2-0.7,1.8-1.4,1.8-2.2c0-0.9-0.8-1.4-2.3-1.4c-0.9,0-1.9,0.2-2.8,0.7c-1,0.5-2,1.5-3.1,3.2
		c-1.1,1.6-2.1,3.8-3.1,6.4C8.7,51.4,8,55.2,8,58.8v10.8c0,1.2,0.6,1.8,1.8,1.8h3.4V72h34L34.7,42.1c-0.3-0.7-0.5-1.2-0.7-1.6
		c-0.2-0.4-0.5-0.8-0.8-1.2c-0.4-0.5-0.8-0.8-1.2-1c-0.4-0.2-1-0.3-1.6-0.3h-2.4v-2h17.8v2h-2.3c-0.7,0-1.3,0.2-1.8,0.5
		s-0.8,0.8-0.8,1.4c0,0.9,0.2,1.8,0.5,2.7l9.2,22.1l6.6-19.4c0.6-1.7,0.9-3.1,0.9-4.2c0-0.9-0.3-1.7-0.8-2.3
		C56.8,38.3,56,38,55.2,38h-2v-2h14.9v2h-1.9c-1.2,0-2.3,0.4-3.3,1.2c-1,0.8-1.8,2-2.3,3.6L50.5,72H72V0H0z"/>
	<path d="M0.3,38H0v33.5h0.3c1.2,0,1.8-0.6,1.8-1.8V39.8C2.1,38.6,1.5,38,0.3,38z"/>
</g>
</svg>
