<?xml version="1.0" encoding="utf-8"?>
<!-- Generator: Adobe Illustrator 18.1.0, SVG Export Plug-In . SVG Version: 6.00 Build 0)  -->
<svg version="1.1" id="Layer_1" xmlns="http://www.w3.org/2000/svg" xmlns:xlink="http://www.w3.org/1999/xlink" x="0px" y="0px"
	 viewBox="0 0 72 72" enable-background="new 0 0 72 72" xml:space="preserve">
<g>
	<path d="M4,16.6H0.1v54.4H4c1.2,0,1.8-0.6,1.8-1.8V18.4C5.8,17.2,5.2,16.6,4,16.6z"/>
	<path d="M22.7,72v-0.9h3.4c1.2,0,1.8-0.6,1.8-1.8v-24c0-5.7-1.8-8.6-5.2-8.6c-2.5,0-4.9,1.6-7.3,4.7c-2.4,3.1-3.6,6.8-3.6,10.9
		v17.1c0,1.2,0.6,1.8,1.8,1.8H17V72H22.7z"/>
	<path d="M0.1,0v14.7h11.6v28.5l0.3,0.1c1.4-2.7,3.1-4.9,5.1-6.4c2-1.5,4.1-2.3,6.3-2.3c2.7,0,4.9,0.7,6.6,2.1
		c2.5,2,3.8,5.4,3.8,10.1v22.4c0,1.2,0.6,1.8,1.8,1.8h3.4V72h33V0H0.1z"/>
</g>
</svg>
